<svg width="125" height="36" viewBox="0 0 125 36" fill="none" xmlns="http://www.w3.org/2000/svg">
<path d="M40.792 18.5048V12.8417H43.4109V18.5048C43.3977 18.8687 43.494 19.2281 43.6874 19.5367C43.8808 19.8452 44.1623 20.0886 44.4955 20.2353C44.8287 20.3821 45.1983 20.4255 45.5565 20.3598C45.9146 20.2942 46.2448 20.1225 46.5043 19.8671C46.6769 19.6892 46.8113 19.4778 46.899 19.246C46.9868 19.0141 47.0261 18.7668 47.0145 18.5191V12.8417H49.6398V18.5048C49.6598 19.0772 49.5603 19.6475 49.3474 20.1792C49.1346 20.7109 48.8132 21.1924 48.4037 21.5928C47.5219 22.3665 46.3889 22.7931 45.2159 22.7931C44.0428 22.7931 42.9098 22.3665 42.0281 21.5928C41.6186 21.1924 41.2971 20.7109 41.0843 20.1792C40.8715 19.6475 40.7719 19.0772 40.792 18.5048Z" fill="white"/>
<path d="M51.5609 22.5201V12.8417H53.8442L57.992 18.1629V12.8417H60.6182V22.5201H58.3348L54.1862 17.1917V22.5201H51.5609Z" fill="white"/>
<path d="M62.6053 22.5201V12.8417H65.2306V22.5201H62.6053Z" fill="white"/>
<path d="M69.5781 22.5201L66.0873 12.8417H68.9229L70.9691 19.6156H71.0192L73.0725 12.8417H75.866L72.4764 22.5201H69.5781Z" fill="white"/>
<path d="M76.82 22.5201V12.8417H84.2151V15.1877H79.4453V16.5849H83.1151V18.7984H79.4453V20.1947H84.3342V22.5219L76.82 22.5201Z" fill="white"/>
<path d="M85.7938 22.5202V12.8417H90.3524C90.8168 12.8233 91.2803 12.8978 91.7156 13.0609C92.1509 13.2239 92.5492 13.4723 92.8872 13.7914C93.2097 14.0941 93.4647 14.4614 93.6356 14.8694C93.8065 15.2773 93.8894 15.7167 93.879 16.1589C93.8962 16.5564 93.8312 16.9533 93.6882 17.3246C93.5451 17.6959 93.327 18.0337 93.0474 18.3169C92.8144 18.5701 92.5348 18.7761 92.224 18.9238L94.2281 22.5202H91.4345L89.8422 19.4769H88.3895V22.5202H85.7938ZM88.419 17.122H90.2002C90.3352 17.1284 90.4702 17.108 90.5972 17.0619C90.7243 17.0158 90.8409 16.9449 90.9404 16.8535C91.0365 16.7648 91.1122 16.6564 91.1624 16.5357C91.2125 16.4153 91.2369 16.2857 91.234 16.1553C91.2381 16.0247 91.214 15.8947 91.1634 15.7742C91.1127 15.6537 91.0367 15.5456 90.9404 15.4571C90.8425 15.3628 90.7263 15.2893 90.5991 15.2413C90.4718 15.1933 90.3361 15.1717 90.2002 15.1779H88.3984L88.419 17.122Z" fill="white"/>
<path d="M94.6971 21.1381L96.2188 19.476C96.3833 19.6748 96.5735 19.8509 96.7845 19.9996C97.221 20.3255 97.7489 20.5061 98.2935 20.516C98.6165 20.5346 98.9369 20.449 99.2074 20.2717C99.3071 20.2095 99.3895 20.1232 99.447 20.0207C99.5044 19.9182 99.535 19.8029 99.5359 19.6854C99.53 19.574 99.4955 19.466 99.4356 19.3719C99.3757 19.2778 99.2924 19.2008 99.194 19.1484C98.9344 18.9844 98.6521 18.8596 98.3562 18.7778C97.9817 18.6672 97.6134 18.5369 97.2526 18.3875C96.8727 18.2283 96.5061 18.0391 96.1561 17.8219C95.8026 17.6006 95.5117 17.2925 95.3112 16.9268C95.0772 16.4992 94.959 16.0178 94.9683 15.5305C94.9708 15.1278 95.063 14.7308 95.2383 14.3684C95.4136 14.0059 95.6675 13.687 95.9816 13.4351C96.7238 12.8174 97.671 12.5008 98.6355 12.5481C99.5411 12.5307 100.433 12.7729 101.205 13.2462C101.509 13.4394 101.784 13.6744 102.022 13.9444L100.501 15.6065C100.376 15.4632 100.232 15.3365 100.075 15.2297C99.7423 14.9754 99.3341 14.8402 98.9156 14.8457C98.6273 14.8242 98.3393 14.8923 98.0913 15.0409C98.0066 15.0937 97.9361 15.1666 97.8862 15.2531C97.8363 15.3395 97.8083 15.4369 97.8048 15.5367C97.8131 15.6469 97.8485 15.7532 97.9078 15.8464C97.9678 15.9392 98.0503 16.0152 98.1476 16.0675C98.4061 16.2384 98.6919 16.3637 98.9926 16.4381C99.3652 16.5499 99.7313 16.6826 100.089 16.8355C100.468 16.9923 100.834 17.1794 101.183 17.3949C101.537 17.6177 101.828 17.9278 102.028 18.2953C102.264 18.7224 102.382 19.2047 102.371 19.6926C102.374 20.1145 102.281 20.5317 102.099 20.9126C101.918 21.2936 101.652 21.6284 101.322 21.8918C100.539 22.5352 99.5419 22.8597 98.5298 22.8003C97.5085 22.8137 96.5064 22.5216 95.6522 21.9616C95.2964 21.7338 94.9748 21.4565 94.6971 21.1381Z" fill="white"/>
<path d="M103.671 22.5201V12.8417H106.298V22.5201H103.671Z" fill="white"/>
<path d="M110.152 22.5201V15.1877H107.456V12.8417H115.48V15.1877H112.778V22.5201H110.152Z" fill="white"/>
<path d="M118.832 22.5201V19.0633L115.376 12.8417H118.274L120.119 16.6404H120.23L122.066 12.8417H124.972L121.481 19.0633V22.5201H118.832Z" fill="white"/>
<path d="M40.8618 35.4884V25.8091H44.451C45.8453 25.7588 47.203 26.261 48.2291 27.2063C48.6972 27.6492 49.07 28.1829 49.3248 28.7748C49.5796 29.3667 49.711 30.0044 49.711 30.6488C49.711 31.2932 49.5796 31.9308 49.3248 32.5227C49.07 33.1146 48.6972 33.6483 48.2291 34.0912C47.722 34.5609 47.1273 34.926 46.4791 35.1657C45.8308 35.4055 45.1417 35.5151 44.451 35.4884H40.8618ZM43.487 33.1389H44.451C44.7894 33.1508 45.1268 33.0952 45.4434 32.9751C45.76 32.8551 46.0495 32.6731 46.2949 32.4398C46.7591 31.962 47.0188 31.3221 47.0188 30.6559C47.0188 29.9898 46.7591 29.3498 46.2949 28.872C46.0495 28.6388 45.76 28.4568 45.4434 28.3367C45.1268 28.2167 44.7894 28.161 44.451 28.173H43.487V33.1389Z" fill="white"/>
<path d="M51.0927 31.4806V25.8094H53.7179V31.4806C53.7086 31.7227 53.7482 31.9641 53.8344 32.1905C53.9205 32.4169 54.0515 32.6236 54.2195 32.7981C54.3874 32.9727 54.5888 33.1115 54.8117 33.2064C55.0346 33.3013 55.2744 33.3501 55.5166 33.3501C55.7588 33.3501 55.9986 33.3013 56.2214 33.2064C56.4443 33.1115 56.6458 32.9727 56.8137 32.7981C56.9817 32.6236 57.1126 32.4169 57.1988 32.1905C57.285 31.9641 57.3246 31.7227 57.3152 31.4806V25.8094H59.9405V31.4806C59.9609 32.0535 59.8616 32.6243 59.6487 33.1565C59.4358 33.6887 59.1142 34.1706 58.7044 34.5713C57.8226 35.345 56.6896 35.7716 55.5166 35.7716C54.3435 35.7716 53.2105 35.345 52.3288 34.5713C51.9195 34.1711 51.5982 33.6899 51.3854 33.1585C51.1726 32.6271 51.0729 32.0572 51.0927 31.4851V31.4806Z" fill="white"/>
<path d="M61.8468 35.4887V25.8094H66.1351C67.0236 25.758 67.9023 26.0172 68.6207 26.5424C68.9037 26.7557 69.1327 27.0325 69.2892 27.3504C69.4458 27.6683 69.5255 28.0185 69.5221 28.3729C69.5341 28.6748 69.4775 28.9755 69.3566 29.2524C69.2357 29.5292 69.0535 29.7751 68.8239 29.9715C68.6154 30.145 68.379 30.2821 68.1248 30.3769C68.4701 30.4969 68.7952 30.6686 69.0888 30.8862C69.393 31.1016 69.6403 31.3877 69.8095 31.7198C69.9786 32.0519 70.0646 32.4201 70.06 32.7927C70.0631 33.1643 69.9795 33.5314 69.8157 33.8648C69.6519 34.1983 69.4125 34.4889 69.1166 34.7136C68.3527 35.2871 67.4061 35.5627 66.4537 35.4887H61.8468ZM64.4729 29.5454H65.9257C66.0447 29.5524 66.164 29.5357 66.2765 29.4962C66.3889 29.4569 66.4926 29.3961 66.5817 29.3172C66.6633 29.2404 66.7274 29.147 66.7697 29.0433C66.812 28.9398 66.8312 28.8283 66.8261 28.7166C66.8292 28.605 66.8091 28.494 66.767 28.3906C66.725 28.2872 66.6619 28.1937 66.5817 28.116C66.4928 28.0368 66.3891 27.9759 66.2765 27.937C66.1639 27.8976 66.0448 27.8806 65.9257 27.8868H64.4729V29.5454ZM64.4729 33.4148H66.2747C66.4105 33.4192 66.5458 33.397 66.673 33.3495C66.8 33.3014 66.9162 33.2287 67.015 33.1356C67.1107 33.0465 67.1864 32.9382 67.237 32.8176C67.2876 32.6971 67.312 32.5672 67.3085 32.4365C67.3132 32.3058 67.2893 32.1757 67.2386 32.0551C67.1879 31.9345 67.1116 31.8265 67.015 31.7384C66.9165 31.6444 66.8002 31.571 66.673 31.5226C66.5459 31.4748 66.4104 31.4532 66.2747 31.4591H64.4729V33.4148Z" fill="white"/>
<path d="M70.199 35.4888L73.8589 25.8094H76.7634L80.4234 35.4888H77.6299L76.9317 33.3934H73.7542L73.0561 35.4888H70.199ZM74.3888 31.2989H76.2336L75.3609 28.5054H75.3045L74.3888 31.2989Z" fill="white"/>
<path d="M81.2468 35.4888V25.8094H83.8729V35.4888H81.2468Z" fill="white"/>
<path d="M40.1988 8.88271L41.7142 7.22682C41.8825 7.4243 42.0746 7.60018 42.2861 7.75044C42.7209 8.07376 43.2463 8.25223 43.788 8.26063C44.1162 8.27234 44.4394 8.1782 44.71 7.99211C44.8093 7.92961 44.8915 7.84321 44.9488 7.74079C45.0062 7.63838 45.037 7.52322 45.0385 7.40584C45.028 7.29554 44.9915 7.18931 44.9319 7.09593C44.8723 7.00255 44.7913 6.92469 44.6956 6.86879C44.4335 6.70481 44.1489 6.57997 43.8507 6.49823C43.4779 6.38676 43.1118 6.25407 42.7542 6.10082C42.3716 5.94532 42.0025 5.75851 41.6506 5.54229C41.299 5.32091 41.0105 5.01263 40.8128 4.64722C40.5746 4.22096 40.4564 3.73809 40.4709 3.25001C40.4715 2.84784 40.5626 2.45096 40.7375 2.08883C40.9125 1.72671 41.1667 1.40863 41.4814 1.15822C42.2226 0.562196 43.1579 0.261252 44.1076 0.313268C45.0133 0.295868 45.905 0.538133 46.6773 1.01143C46.9816 1.2041 47.2567 1.43919 47.4945 1.70958L46.0016 3.35742C45.8783 3.21205 45.7348 3.08515 45.5755 2.98059C45.2414 2.72622 44.8318 2.59103 44.4119 2.5966C44.1246 2.57734 43.8383 2.64703 43.592 2.7962C43.5076 2.8494 43.4373 2.92217 43.387 3.00834C43.337 3.09475 43.3093 3.19227 43.3065 3.29208C43.3128 3.40254 43.3476 3.50948 43.4076 3.60249C43.4675 3.69551 43.5504 3.77142 43.6484 3.82285C43.9063 3.98994 44.1891 4.11502 44.4862 4.19342C44.8617 4.30194 45.2302 4.43316 45.5898 4.58635C45.969 4.74426 46.3356 4.93098 46.6863 5.14488C47.0388 5.36968 47.3293 5.67927 47.5312 6.04533C47.7648 6.47313 47.8803 6.95535 47.866 7.44254C47.87 7.86386 47.7785 8.28062 47.5984 8.66151C47.4182 9.04241 47.1541 9.37753 46.8259 9.64173C46.0416 10.2842 45.0446 10.6084 44.0324 10.5502C42.9984 10.5693 41.9822 10.2798 41.1136 9.71871C40.7686 9.48735 40.4602 9.20555 40.1988 8.88271Z" fill="white"/>
<path d="M51.3792 10.2647V6.80793L47.8884 0.592529H50.7902L52.6269 4.39123H52.6833L54.5826 0.592529H57.4809L53.9901 6.80793V10.2647H51.3792Z" fill="white"/>
<path d="M58.2083 10.2647V0.592529H60.4925L64.6403 5.89943V0.592529H67.2664V10.2647H64.9831L60.8693 4.94438V10.2665L58.2083 10.2647Z" fill="white"/>
<path d="M69.2503 10.2647V0.592529H76.6526V2.93852H71.8827V4.33573H75.5355V6.53493H71.8657V7.93214H76.7546V10.2781L69.2503 10.2647Z" fill="white"/>
<path d="M78.2303 10.2648V0.592652H82.7907C83.2528 0.576245 83.7136 0.651827 84.1463 0.815009C84.579 0.978192 84.975 1.22572 85.3112 1.54322C85.6337 1.84593 85.8887 2.21324 86.0596 2.62119C86.2305 3.02913 86.3134 3.46853 86.303 3.91069C86.3188 4.308 86.2532 4.70435 86.1104 5.07544C85.9676 5.44652 85.7504 5.78452 85.4723 6.06872C85.239 6.32199 84.9591 6.52802 84.648 6.67558L86.652 10.2657H83.8594L82.3091 7.22694H80.8564V10.2648H78.2303ZM80.8564 4.8729H82.6546C82.7895 4.87943 82.9244 4.85905 83.0513 4.81295C83.1782 4.76685 83.2947 4.69595 83.394 4.60437C83.4896 4.51546 83.5652 4.40724 83.6158 4.28687C83.6665 4.1665 83.6909 4.03675 83.6876 3.90622C83.6926 3.77546 83.669 3.64518 83.6182 3.52456C83.5675 3.40393 83.491 3.2959 83.394 3.20806C83.296 3.11392 83.18 3.04055 83.0529 2.99235C82.9259 2.94408 82.7904 2.92245 82.6546 2.9288H80.8564V4.8729Z" fill="white"/>
<path d="M92.875 6.80788V4.87273H97.0236V8.61414C96.7109 8.98537 96.3465 9.30972 95.9415 9.57724C94.9971 10.221 93.8782 10.5599 92.7353 10.5484C92.0261 10.5693 91.3198 10.4485 90.6579 10.1931C89.9959 9.93764 89.3916 9.55269 88.8802 9.06078C88.3849 8.59779 87.9922 8.03599 87.7276 7.41171C87.4631 6.78742 87.3325 6.11456 87.3443 5.43662C87.3316 4.75752 87.4618 4.08333 87.7264 3.45776C87.991 2.83219 88.3841 2.26921 88.8802 1.80531C89.8156 0.94718 91.0115 0.427199 92.277 0.328392C93.5425 0.229586 94.8046 0.557652 95.8618 1.26021C96.2443 1.5249 96.5938 1.83441 96.9028 2.18213L95.3105 3.98392C95.1012 3.7503 94.8671 3.54021 94.6123 3.35737C94.0759 2.96029 93.4286 2.74118 92.7613 2.73081C92.4027 2.72428 92.0464 2.78927 91.7132 2.92198C91.38 3.05469 91.0766 3.25246 90.8207 3.50374C90.5648 3.75503 90.3616 4.05478 90.2228 4.3855C90.084 4.71621 90.0126 5.07126 90.0126 5.42991C90.0126 5.78856 90.084 6.14361 90.2228 6.47432C90.3616 6.80504 90.5648 7.10479 90.8207 7.35608C91.0766 7.60736 91.38 7.80513 91.7132 7.93784C92.0464 8.07055 92.4027 8.13554 92.7613 8.12901C93.2013 8.13984 93.6374 8.04403 94.0323 7.84974C94.1904 7.7677 94.3423 7.67437 94.487 7.57048V6.80967L92.875 6.80788Z" fill="white"/>
<path d="M100.878 10.2647V6.80793L97.4234 0.592529H100.328L102.167 4.39123H102.224L104.059 0.592529H106.965L103.508 6.80793V10.2647H100.878Z" fill="white"/>
<path d="M21.734 21.5353L18.2495 18.0508L21.734 14.5663V7.60352L11.2867 18.0508L21.734 28.5053V21.5353Z" fill="#F43F54"/>
<path d="M0.811768 35.4887H35.6865V0.613037H0.811768V35.4887ZM30.701 30.5094H5.79107V5.5995H30.701V30.5094Z" fill="#F43F54"/>
</svg>
